<svg width="90" height="30" viewBox="0 0 90 30" fill="none" xmlns="http://www.w3.org/2000/svg">
<path d="M23.7788 21.2212C23.1933 20.6605 22.6235 20.0836 22.07 19.4913C21.605 19.0188 21.325 18.675 21.325 18.675L17.825 17.0037C19.2262 15.4145 19.9996 13.3687 20 11.25C20 6.42625 16.075 2.5 11.25 2.5C6.425 2.5 2.5 6.42625 2.5 11.25C2.5 16.0737 6.425 20 11.25 20C13.4538 20 15.4625 19.175 17.0038 17.8263L18.675 21.3263C18.675 21.3263 19.0188 21.6062 19.4913 22.0712C19.975 22.525 20.6112 23.1388 21.2213 23.78L22.9188 25.52L23.6738 26.3275L26.325 23.6763L25.5175 22.9212C25.0438 22.4562 24.4113 21.8387 23.7788 21.2212ZM11.25 17.5C7.80375 17.5 5 14.6962 5 11.25C5 7.80375 7.80375 5 11.25 5C14.6963 5 17.5 7.80375 17.5 11.25C17.5 14.6962 14.6963 17.5 11.25 17.5Z" fill="white"/>
<path d="M71.25 26.6667C72.4006 26.6667 73.3334 25.7339 73.3334 24.5833C73.3334 23.4327 72.4006 22.5 71.25 22.5C70.0994 22.5 69.1667 23.4327 69.1667 24.5833C69.1667 25.7339 70.0994 26.6667 71.25 26.6667Z" fill="white"/>
<path d="M82.0833 26.6667C83.2339 26.6667 84.1667 25.7339 84.1667 24.5833C84.1667 23.4327 83.2339 22.5 82.0833 22.5C80.9327 22.5 80 23.4327 80 24.5833C80 25.7339 80.9327 26.6667 82.0833 26.6667Z" fill="white"/>
<path d="M87.5833 5.325C87.5057 5.22416 87.406 5.14243 87.2919 5.08609C87.1777 5.02976 87.0522 5.00031 86.925 5H67.675L67.3 3.80833C67.2588 3.68038 67.1872 3.5643 67.0915 3.46998C66.9957 3.37566 66.8785 3.3059 66.75 3.26667L63.3333 2.21667C63.2282 2.18438 63.1179 2.17311 63.0084 2.18349C62.899 2.19387 62.7927 2.22569 62.6956 2.27715C62.4995 2.38108 62.3527 2.55866 62.2875 2.77083C62.2223 2.98301 62.244 3.21239 62.348 3.40852C62.4519 3.60465 62.6295 3.75147 62.8416 3.81667L65.8333 4.73333L69.65 16.7917L68.2916 17.9083L68.1833 18.0167C67.8474 18.4056 67.6571 18.8992 67.6449 19.413C67.6327 19.9268 67.7995 20.4289 68.1166 20.8333C68.3438 21.1096 68.6324 21.3288 68.9594 21.4735C69.2864 21.6182 69.6428 21.6843 70 21.6667H83.9083C84.1293 21.6667 84.3413 21.5789 84.4976 21.4226C84.6538 21.2663 84.7416 21.0543 84.7416 20.8333C84.7416 20.6123 84.6538 20.4004 84.4976 20.2441C84.3413 20.0878 84.1293 20 83.9083 20H69.8666C69.7707 19.9967 69.6772 19.9688 69.5952 19.9188C69.5132 19.8688 69.4455 19.7986 69.3985 19.7148C69.3516 19.631 69.3271 19.5366 69.3274 19.4405C69.3276 19.3445 69.3526 19.2502 69.4 19.1667L71.4083 17.5H84.2666C84.457 17.5055 84.6435 17.4457 84.7951 17.3305C84.9468 17.2153 85.0543 17.0516 85.1 16.8667L87.7666 6.03333C87.792 5.9091 87.7886 5.78072 87.7569 5.65797C87.7251 5.53522 87.6657 5.42134 87.5833 5.325Z" fill="white"/>
</svg>
